# xmcd CD database file
#
# Track frame offsets:
#	150
#	17370
#	37449
#	64139
#	81835
#	99978
#	122563
#	145959
#	165841
#	188179
#	204283
#
# Disc length: 3021 seconds
#
# Revision: 0
# Processed by: cddbd v1.5.2PL0 Copyright (c) Steve Scherf et al.
# Submitted via: jetAudio 7
#
DISCID=8b0bcb0b
DTITLE=Chris Bevington - Better Start Cookin'
DYEAR=1900
DGENRE=Blues
TTITLE0=61 and 49
TTITLE1=Boogie Man
TTITLE2=Change The World
TTITLE3=Express Train
TTITLE4=Better Start Cookin'
TTITLE5=Old Friend
TTITLE6=Everyday I Have The Blues
TTITLE7=Call My Name
TTITLE8=Bold As Love
TTITLE9=Still Havn't Seen You Cry
TTITLE10=Someone To Watch Over Me
EXTD=
EXTT0=
EXTT1=
EXTT2=
EXTT3=
EXTT4=
EXTT5=
EXTT6=
EXTT7=
EXTT8=
EXTT9=
EXTT10=
PLAYORDER=
